# xmcd
#
# Track frame offsets: 
#        150
#        15671
#        32273
#        45913
#        63177
#        81541
#
# Disc length: 1307 seconds
#
# Revision: 1
# Processed by: cddbd v1.5.2PL0 Copyright (c) Steve Scherf et al.
# Submitted via: ExactAudioCopyFreeDBPlugin 1.0
#
DISCID=3a051906
DTITLE=APink - Secret Garden
DYEAR=2013
DGENRE=K-Pop
TTITLE0=U You
TTITLE1=NoNoNo
TTITLE2=Lovely Day
TTITLE3=난 니가 필요해
TTITLE4=Secret Garden
TTITLE5=NoNoNo [Instrumental]
EXTD=
EXTT0=
EXTT1=
EXTT2=
EXTT3=
EXTT4=
EXTT5=
PLAYORDER=
